# Blender v2.90.1 OBJ File: 'cube.blend'
# www.blender.org
o b_Cylinder.002
v 0.000000 0.000000 -0.400000
v -0.000000 0.068285 -0.334918
v 0.282843 0.000000 -0.282843
v 0.236823 0.068285 -0.236823
v 0.400000 0.000000 0.000000
v 0.334918 0.068285 0.000000
v 0.282843 0.000000 0.282843
v 0.236823 0.068285 0.236823
v -0.000000 0.000000 0.400000
v -0.000000 0.068285 0.334918
v -0.282843 0.000000 0.282843
v -0.236823 0.068285 0.236823
v -0.400000 0.000000 -0.000000
v -0.334918 0.068285 -0.000000
v -0.282843 0.000000 -0.282843
v -0.236823 0.068285 -0.236823
v 0.093980 0.193447 -0.093980
v -0.000000 0.193447 -0.132908
v -0.093980 0.193447 -0.093980
v -0.132908 0.193447 -0.000000
v -0.093980 0.193447 0.093980
v -0.000000 0.193447 0.132908
v 0.093980 0.193447 0.093980
v 0.132908 0.193447 0.000000
v 0.186004 0.878407 -0.186004
v 0.000000 0.878407 -0.263050
v 0.263050 0.878407 0.000000
v -0.186004 0.878407 -0.186004
v -0.263050 0.878407 -0.000000
v -0.186004 0.878407 0.186004
v -0.000000 0.878407 0.263050
v 0.186004 0.878407 0.186004
v 0.186004 0.933379 -0.186004
v 0.000000 0.933379 -0.263050
v 0.263050 0.933379 0.000000
v -0.186004 0.933379 -0.186004
v -0.263050 0.933379 -0.000000
v -0.186004 0.933379 0.186004
v -0.000000 0.933379 0.263050
v 0.186004 0.933379 0.186004
v 0.186004 1.282689 -0.186004
v 0.000000 1.282689 -0.263050
v 0.263050 1.282689 0.000000
v -0.186004 1.282689 -0.186004
v -0.263050 1.282689 -0.000000
v -0.186004 1.282689 0.186004
v 0.000000 1.282689 0.263050
v 0.186005 1.282689 0.186004
v 0.041597 1.496673 -0.041597
v 0.000000 1.496673 -0.058826
v 0.058826 1.496673 0.000000
v -0.041597 1.496673 -0.041597
v -0.058826 1.496673 -0.000000
v -0.041597 1.496673 0.041597
v 0.000000 1.496673 0.058826
v 0.041597 1.496673 0.041597
v 0.058260 1.555081 -0.058260
v 0.000000 1.555081 -0.082392
v 0.082392 1.555081 0.000000
v -0.058260 1.555081 -0.058260
v -0.082392 1.555081 -0.000000
v -0.058260 1.555081 0.058260
v -0.000000 1.555081 0.082392
v 0.058260 1.555081 0.058260
v 0.000000 1.608820 0.000000
v -0.124962 0.892836 -0.080936
v -0.088362 0.892836 0.007425
v 0.000000 0.892836 0.044026
v 0.088362 0.892836 0.007425
v 0.124962 0.892836 -0.080936
v -0.124962 0.918951 -0.080936
v -0.088362 0.918951 0.007425
v 0.000000 0.918951 0.044026
v 0.088362 0.918951 0.007425
v 0.124962 0.918951 -0.080936
vt 0.559274 0.687282
vt 0.597891 0.562208
vt 0.589288 0.672971
vt 0.343127 0.519146
vt 0.373887 0.376064
vt 0.373887 0.531817
vt 0.254446 0.406955
vt 0.105913 0.376461
vt 0.255697 0.376064
vt 0.129033 0.407287
vt 0.000000 0.486871
vt 0.040352 0.499733
vt 0.000000 0.642618
vt 0.040352 0.630140
vt 0.105913 0.752468
vt 0.465247 0.915932
vt 0.559274 0.566638
vt 0.517544 0.918170
vt 0.254446 0.721785
vt 0.255697 0.752072
vt 0.566477 0.817499
vt 0.597891 0.828491
vt 0.268858 0.375975
vt 0.000000 0.266007
vt 0.111365 0.000089
vt 0.343127 0.629339
vt 0.271858 0.538997
vt 0.343127 0.498932
vt 0.236667 0.627433
vt 0.271858 0.590747
vt 0.129033 0.722117
vt 0.186898 0.627565
vt 0.151707 0.539315
vt 0.151707 0.591065
vt 0.186898 0.502629
vt 0.236667 0.502497
vt 0.453510 0.358328
vt 0.380223 0.376493
vt 0.380223 0.348770
vt 0.531515 0.004829
vt 0.479149 0.004829
vt 0.781732 0.004829
vt 0.703727 0.358328
vt 0.729366 0.004829
vt 0.630441 0.348770
vt 0.692337 0.000000
vt 0.380223 0.566638
vt 0.455767 0.562208
vt 0.630440 0.348770
vt 0.557154 0.358328
vt 0.442120 0.000000
vt 0.885376 0.000000
vt 0.807371 0.353499
vt 0.833009 0.000000
vt 0.347057 0.752468
vt 0.271756 0.936620
vt 0.271756 0.759904
vt 0.911014 0.353499
vt 0.807371 0.381222
vt 0.818807 0.863302
vt 0.714433 0.803579
vt 0.818807 0.760888
vt 0.597891 0.643150
vt 0.617693 0.562208
vt 0.626032 0.643150
vt 0.807371 0.358328
vt 0.703727 0.386051
vt 0.630441 0.376493
vt 0.831847 0.935902
vt 0.865600 0.855090
vt 0.930349 0.935641
vt 0.343127 0.674196
vt 0.357253 0.609269
vt 0.371179 0.674196
vt 0.000000 0.927760
vt 0.142154 0.904758
vt 0.069651 1.000000
vt 0.630440 0.376493
vt 0.557154 0.562208
vt 0.557154 0.386051
vt 0.453510 0.386051
vt 0.380223 0.552650
vt 0.911014 0.381222
vt 0.807371 0.557379
vt 0.168152 0.936319
vt 0.168152 0.759602
vt 0.453510 0.562208
vt 0.807371 0.386051
vt 0.703727 0.562208
vt 0.630440 0.552650
vt 0.630140 0.649279
vt 0.597891 0.675189
vt 0.599295 0.643150
vt 0.807371 0.562208
vt 0.743960 0.657452
vt 0.727571 0.655315
vt 0.069651 0.752728
vt 0.164182 0.849402
vt 0.142154 0.849460
vt 0.126578 0.865698
vt 0.126578 0.888603
vt 0.164182 0.904700
vt 0.168152 0.999739
vt 0.911014 0.557379
vt 0.847604 0.652623
vt 0.000000 0.825337
vt 0.985498 0.022627
vt 0.985498 0.054707
vt 0.939651 0.038553
vt 0.374411 0.581996
vt 0.343127 0.554502
vt 0.374411 0.559090
vt 0.767138 0.657452
vt 0.739318 0.688370
vt 0.716363 0.685376
vt 0.629137 0.672155
vt 0.599294 0.698573
vt 0.346156 0.609269
vt 0.343127 0.586584
vt 0.346156 0.531817
vt 0.376574 0.542893
vt 0.870782 0.652623
vt 0.842961 0.683540
vt 0.932830 0.000082
vt 0.963682 0.000000
vt 0.932830 0.077531
vt 0.911014 0.054904
vt 0.963682 0.077450
vt 0.911014 0.022824
vt 0.611248 0.747700
vt 0.600020 0.698573
vt 0.613378 0.699106
vt 0.368491 0.723500
vt 0.357872 0.674196
vt 0.371179 0.674914
vt 0.613378 0.783166
vt 0.597891 0.747167
vt 0.371179 0.758103
vt 0.355185 0.722781
vt 0.930349 0.688370
vt 0.898688 0.771941
vt 0.865600 0.737623
vt 1.000000 0.760610
vt 0.898688 0.820597
vt 0.745571 0.688428
vt 0.679642 0.769157
vt 0.641999 0.688370
vt 0.630440 0.769129
vt 1.000000 0.863033
vt 0.745571 0.935679
vt 0.714433 0.852231
vt 0.566477 0.594541
vt 0.343127 0.388735
vt 0.380223 0.110058
vt 0.380223 0.265792
vt 0.111365 0.376064
vt 0.000000 0.110273
vt 0.268858 0.000000
vt 0.427078 0.918170
vt 0.568544 0.000000
vt 0.347057 0.929184
vt 0.604325 0.562208
vt 0.818807 0.855214
vt 0.343927 0.609269
vt 0.630441 0.552650
vt 0.168152 0.752468
vt 0.771781 0.688370
vt 0.630140 0.688850
vt 0.376574 0.598193
vt 0.875424 0.683540
vt 0.600020 0.782633
vt 0.357872 0.757384
vt 0.679642 0.886613
vn 0.2872 0.6609 -0.6934
vn 0.6934 0.6609 -0.2872
vn 0.6934 0.6609 0.2872
vn 0.2872 0.6609 0.6934
vn -0.2872 0.6609 0.6934
vn -0.6934 0.6609 0.2872
vn 0.3769 -0.1729 0.9100
vn -0.6934 0.6609 -0.2872
vn -0.2872 0.6609 -0.6934
vn 0.0000 -1.0000 0.0000
vn 0.2131 0.8305 -0.5146
vn -0.2131 0.8305 -0.5146
vn -0.5146 0.8305 -0.2131
vn -0.5146 0.8305 0.2131
vn -0.2131 0.8305 0.5146
vn 0.2131 0.8305 0.5146
vn 0.5146 0.8305 0.2131
vn 0.5146 0.8305 -0.2131
vn -0.9239 0.0000 -0.3827
vn -0.9100 -0.1729 0.3769
vn -0.3769 -0.1729 -0.9100
vn 0.3769 -0.1729 -0.9100
vn 0.9100 -0.1729 0.3769
vn -0.3769 -0.1729 0.9100
vn -0.9100 -0.1729 -0.3769
vn 0.9100 -0.1729 -0.3769
vn 0.9239 -0.0000 0.3827
vn 0.9239 0.0000 -0.3827
vn -0.0272 -0.9975 0.0657
vn 0.5057 0.0000 0.8627
vn -0.3827 0.0000 -0.9239
vn 0.3827 0.0000 -0.9239
vn 0.0837 0.9959 0.0347
vn -0.5057 0.0000 0.8627
vn -0.6930 0.6614 0.2870
vn -0.3827 0.0000 0.9239
vn 0.3827 -0.0000 0.9239
vn -0.9239 0.0000 0.3827
vn 0.3586 -0.3493 0.8657
vn -0.2870 0.6614 -0.6930
vn 0.2870 0.6614 -0.6930
vn 0.6930 0.6614 0.2870
vn -0.2870 0.6614 0.6930
vn -0.6930 0.6614 -0.2870
vn 0.6930 0.6614 -0.2870
vn 0.2870 0.6614 0.6930
vn -0.2207 0.8169 0.5328
vn -0.8657 -0.3493 0.3586
vn -0.3586 -0.3493 -0.8657
vn 0.3586 -0.3493 -0.8657
vn 0.8657 -0.3493 0.3586
vn -0.3586 -0.3493 0.8657
vn -0.8657 -0.3493 -0.3586
vn 0.8657 -0.3493 -0.3586
vn -0.5328 0.8169 -0.2207
vn 0.5328 0.8169 -0.2207
vn 0.2207 0.8169 0.5328
vn -0.5328 0.8169 0.2207
vn -0.2207 0.8169 -0.5328
vn 0.2207 0.8169 -0.5328
vn 0.5328 0.8169 0.2207
vn -0.0837 0.9959 0.0347
vn -0.0272 0.9975 0.0657
vn 0.0272 -0.9975 0.0657
vn 0.0837 -0.9959 0.0347
vn 0.0272 0.9975 0.0657
vn -0.0837 -0.9959 0.0347
s off
f 2/1/1 3/2/1 1/3/1
f 4/4/2 5/5/2 3/6/2
f 6/7/3 7/8/3 5/9/3
f 8/10/4 9/11/4 7/8/4
f 10/12/5 11/13/5 9/11/5
f 12/14/6 13/15/6 11/13/6
f 23/16/7 31/17/7 22/18/7
f 13/15/8 16/19/8 15/20/8
f 16/21/9 1/3/9 15/22/9
f 3/23/10 7/24/10 11/25/10
f 2/26/11 17/27/11 4/28/11
f 2/26/12 19/29/12 18/30/12
f 14/31/13 19/29/13 16/19/13
f 12/14/14 20/32/14 14/31/14
f 12/14/15 22/33/15 21/34/15
f 10/12/16 23/35/16 22/33/16
f 6/7/17 23/35/17 8/10/17
f 4/28/18 24/36/18 6/7/18
f 29/37/19 36/38/19 28/39/19
f 21/40/20 29/37/20 20/41/20
f 19/42/21 26/43/21 18/44/21
f 18/44/22 25/45/22 17/46/22
f 23/16/23 27/47/23 32/48/23
f 21/40/24 31/49/24 30/50/24
f 20/41/25 28/39/25 19/51/25
f 17/52/26 27/53/26 24/54/26
f 35/55/27 48/56/27 40/57/27
f 25/58/28 35/59/28 27/53/28
f 38/60/29 73/61/29 39/62/29
f 29/63/30 71/64/30 37/65/30
f 28/66/31 34/67/31 26/43/31
f 26/43/32 33/68/32 25/45/32
f 27/69/33 69/70/33 32/71/33
f 35/72/34 70/73/34 27/74/34
f 46/75/35 53/76/35 45/77/35
f 39/78/36 46/79/36 38/80/36
f 37/81/19 44/82/19 36/38/19
f 33/83/28 43/84/28 35/59/28
f 40/57/37 47/85/37 39/86/37
f 38/80/38 45/87/38 37/81/38
f 36/88/31 42/89/31 34/67/31
f 33/68/32 42/89/32 41/90/32
f 55/91/39 64/92/39 63/93/39
f 44/94/40 50/95/40 42/89/40
f 42/89/41 49/96/41 41/90/41
f 48/97/42 51/98/42 56/99/42
f 46/75/43 55/100/43 54/101/43
f 45/77/44 52/102/44 44/103/44
f 41/104/45 51/105/45 43/84/45
f 48/97/46 55/100/46 47/106/46
f 62/107/47 63/108/47 65/109/47
f 54/110/48 61/111/48 53/112/48
f 52/113/49 58/114/49 50/95/49
f 50/95/50 57/115/50 49/96/50
f 56/116/51 59/117/51 64/92/51
f 54/110/52 63/118/52 62/119/52
f 53/112/53 60/120/53 52/121/53
f 49/122/54 59/123/54 51/105/54
f 60/124/55 61/125/55 65/109/55
f 59/126/56 57/127/56 65/109/56
f 63/108/57 64/128/57 65/109/57
f 61/125/58 62/107/58 65/109/58
f 58/129/59 60/124/59 65/109/59
f 57/127/60 58/129/60 65/109/60
f 64/128/61 59/126/61 65/109/61
f 69/130/37 73/131/37 68/132/37
f 67/133/38 71/134/38 66/135/38
f 70/136/27 74/137/27 69/130/27
f 68/138/36 72/139/36 67/133/36
f 29/140/62 67/141/62 66/142/62
f 30/143/63 68/144/63 67/141/63
f 40/145/64 73/61/64 74/146/64
f 35/147/65 74/146/65 75/148/65
f 32/71/66 68/144/66 31/149/66
f 37/150/67 72/151/67 38/60/67
f 2/1/1 4/152/1 3/2/1
f 4/4/2 6/153/2 5/5/2
f 6/7/3 8/10/3 7/8/3
f 8/10/4 10/12/4 9/11/4
f 10/12/5 12/14/5 11/13/5
f 12/14/6 14/31/6 13/15/6
f 23/16/7 32/48/7 31/17/7
f 13/15/8 14/31/8 16/19/8
f 16/21/9 2/1/9 1/3/9
f 15/154/10 1/155/10 3/23/10
f 3/23/10 5/156/10 7/24/10
f 7/24/10 9/157/10 11/25/10
f 11/25/10 13/158/10 15/154/10
f 15/154/10 3/23/10 11/25/10
f 2/26/11 18/30/11 17/27/11
f 2/26/12 16/19/12 19/29/12
f 14/31/13 20/32/13 19/29/13
f 12/14/14 21/34/14 20/32/14
f 12/14/15 10/12/15 22/33/15
f 10/12/16 8/10/16 23/35/16
f 6/7/17 24/36/17 23/35/17
f 4/28/18 17/27/18 24/36/18
f 29/37/19 37/81/19 36/38/19
f 21/40/20 30/50/20 29/37/20
f 19/42/21 28/66/21 26/43/21
f 18/44/22 26/43/22 25/45/22
f 23/16/23 24/159/23 27/47/23
f 21/40/24 22/160/24 31/49/24
f 20/41/25 29/37/25 28/39/25
f 17/52/26 25/58/26 27/53/26
f 35/55/27 43/161/27 48/56/27
f 25/58/28 33/83/28 35/59/28
f 38/60/29 72/151/29 73/61/29
f 29/63/30 66/162/30 71/64/30
f 28/66/31 36/88/31 34/67/31
f 26/43/32 34/67/32 33/68/32
f 27/69/33 70/163/33 69/70/33
f 35/72/34 75/164/34 70/73/34
f 46/75/35 54/101/35 53/76/35
f 39/78/36 47/165/36 46/79/36
f 37/81/19 45/87/19 44/82/19
f 33/83/28 41/104/28 43/84/28
f 40/57/37 48/56/37 47/85/37
f 38/80/38 46/79/38 45/87/38
f 36/88/31 44/94/31 42/89/31
f 33/68/32 34/67/32 42/89/32
f 55/91/39 56/116/39 64/92/39
f 44/94/40 52/113/40 50/95/40
f 42/89/41 50/95/41 49/96/41
f 48/97/42 43/166/42 51/98/42
f 46/75/43 47/106/43 55/100/43
f 45/77/44 53/76/44 52/102/44
f 41/104/45 49/122/45 51/105/45
f 48/97/46 56/99/46 55/100/46
f 54/110/48 62/119/48 61/111/48
f 52/113/49 60/167/49 58/114/49
f 50/95/50 58/114/50 57/115/50
f 56/116/51 51/168/51 59/117/51
f 54/110/52 55/169/52 63/118/52
f 53/112/53 61/111/53 60/120/53
f 49/122/54 57/170/54 59/123/54
f 69/130/37 74/137/37 73/131/37
f 67/133/38 72/139/38 71/134/38
f 70/136/27 75/171/27 74/137/27
f 68/138/36 73/172/36 72/139/36
f 29/140/62 30/143/62 67/141/62
f 30/143/63 31/149/63 68/144/63
f 40/145/64 39/62/64 73/61/64
f 35/147/65 40/145/65 74/146/65
f 32/71/66 69/70/66 68/144/66
f 37/150/67 71/173/67 72/151/67
