# Blender v2.90.1 OBJ File: 'cube.blend'
# www.blender.org
o k_Cylinder.004
v 0.000000 0.000000 -0.400000
v 0.000000 0.065457 -0.400000
v 0.282843 0.000000 -0.282843
v 0.282843 0.065457 -0.282843
v 0.400000 0.000000 0.000000
v 0.400000 0.065457 0.000000
v 0.282843 0.000000 0.282843
v 0.282843 0.065457 0.282843
v -0.000000 0.000000 0.400000
v -0.000000 0.065457 0.400000
v -0.282843 0.000000 0.282843
v -0.282843 0.065457 0.282843
v -0.400000 0.000000 -0.000000
v -0.400000 0.065457 -0.000000
v -0.282843 0.000000 -0.282843
v -0.282843 0.065457 -0.282843
v 0.111682 0.470999 -0.111682
v 0.000000 0.470999 -0.157943
v -0.111682 0.470999 -0.111682
v -0.157943 0.470999 -0.000000
v -0.111682 0.470999 0.111682
v -0.000000 0.470999 0.157943
v 0.111682 0.470999 0.111682
v 0.157943 0.470999 0.000000
v 0.149053 1.617832 -0.149053
v 0.000000 1.617832 -0.210793
v 0.210793 1.617832 0.000000
v -0.149053 1.617832 -0.149053
v -0.210793 1.617832 -0.000000
v -0.149053 1.617832 0.149053
v -0.000000 1.617832 0.210793
v 0.149053 1.617832 0.149053
v 0.149053 1.783674 -0.149053
v 0.000000 1.783674 -0.210793
v 0.210793 1.783674 0.000000
v -0.149053 1.783674 -0.149053
v -0.210793 1.783674 -0.000000
v -0.149053 1.783674 0.149053
v 0.000000 1.783674 0.210793
v 0.149053 1.783674 0.149053
v 0.044413 1.783674 -0.107222
v -0.044413 1.783674 -0.107222
v -0.107222 1.783674 -0.044413
v -0.107222 1.783674 0.044413
v -0.044413 1.783674 0.107222
v 0.044413 1.783674 0.107222
v 0.107222 1.783674 0.044413
v 0.107222 1.783674 -0.044413
v -0.044413 1.783674 -0.044413
v -0.044413 1.783674 0.044413
v 0.044413 1.783674 -0.044413
v 0.044413 1.783674 0.044413
v -0.044413 1.890777 -0.044413
v -0.044413 1.890777 0.044413
v 0.044413 1.890777 -0.044413
v 0.044413 1.890777 0.044413
v -0.044413 1.990966 -0.044413
v -0.044413 1.990966 0.044413
v 0.044413 1.990966 -0.044413
v 0.044413 1.990966 0.044413
v -0.044413 2.066162 -0.044413
v -0.044413 2.066162 0.044413
v 0.044413 2.066162 -0.044413
v 0.044413 2.066162 0.044413
v -0.152779 1.890777 -0.044413
v -0.152779 1.890777 0.044413
v 0.152779 1.890777 -0.044413
v 0.152779 1.890777 0.044413
v -0.152779 1.990966 -0.044413
v -0.152779 1.990966 0.044413
v 0.152779 1.990966 -0.044413
v 0.152779 1.990966 0.044413
vt 0.375000 0.680671
vt 0.500000 0.707000
vt 0.375000 0.706625
vt 0.500000 0.680981
vt 0.625000 0.706472
vt 0.500000 0.706934
vt 0.625000 0.680518
vt 0.750000 0.706934
vt 0.000000 0.681046
vt 0.125000 0.706625
vt 0.000000 0.707000
vt 0.125000 0.680672
vt 0.250000 0.707000
vt 0.750000 0.680981
vt 0.875000 0.706472
vt 0.750000 0.706934
vt 0.575643 0.520861
vt 0.625000 0.065756
vt 0.625000 0.520678
vt 0.875000 0.680518
vt 1.000000 0.706934
vt 0.250000 0.681046
vt 0.250000 0.707000
vt 0.500000 0.792771
vt 0.730970 0.706934
vt 0.826641 0.914163
vt 0.424357 0.520796
vt 0.375000 0.520647
vt 0.924357 0.520861
vt 1.000000 0.680981
vt 0.875000 0.520678
vt 0.250000 0.681046
vt 0.125000 0.520648
vt 0.174357 0.520796
vt 0.075643 0.520796
vt 0.674357 0.520861
vt 0.750000 0.680981
vt 0.690872 0.000244
vt 0.690873 0.066000
vt 0.059127 0.065954
vt 0.125000 0.065757
vt 0.825643 0.520861
vt 0.875000 0.065756
vt 0.325643 0.520796
vt 0.375000 0.065757
vt 0.440873 0.065954
vt 0.190873 0.065954
vt 0.940873 0.066000
vt 0.190873 0.000198
vt 0.875000 0.000000
vt 0.940873 0.000244
vt 0.559127 0.066000
vt 0.625000 0.000000
vt 0.125000 0.000000
vt 0.809127 0.066000
vt 0.309127 0.000198
vt 0.375000 0.000000
vt 0.440873 0.000198
vt 0.172134 0.752235
vt 0.122334 0.751681
vt 0.121717 0.707000
vt 0.172134 0.816206
vt 0.137357 0.784220
vt 0.121717 0.861441
vt 0.122334 0.816760
vt 0.050417 0.861441
vt 0.086067 0.830238
vt 0.000000 0.816206
vt 0.049799 0.816760
vt 0.000000 0.752235
vt 0.034777 0.784220
vt 0.050417 0.707000
vt 0.049799 0.751681
vt 0.086067 0.738203
vt 0.075444 0.807229
vt 0.865897 0.792369
vt 0.905152 0.749903
vt 0.905152 0.792369
vt 0.096689 0.761211
vt 0.060422 0.774690
vt 0.111712 0.793751
vt 0.237290 0.790537
vt 0.233393 0.737562
vt 0.264884 0.765486
vt 0.270955 0.820388
vt 0.298549 0.795337
vt 0.865897 0.749400
vt 0.905152 0.706934
vt 0.905152 0.749400
vt 0.424964 0.732761
vt 0.363705 0.737562
vt 0.397370 0.707710
vt 0.359808 0.790537
vt 0.308578 0.786444
vt 0.332214 0.765486
vt 0.865896 0.706934
vt 0.826641 0.749903
vt 0.826641 0.706934
vt 0.391299 0.762613
vt 0.298549 0.734925
vt 0.460744 0.828158
vt 0.500000 0.792938
vt 0.500000 0.828158
vt 0.460744 0.777441
vt 0.427514 0.742221
vt 0.460744 0.742221
vt 0.205798 0.762613
vt 0.209757 0.716603
vt 0.460744 0.742221
vt 0.427514 0.707000
vt 0.460744 0.707000
vt 0.865897 0.832093
vt 0.905152 0.792369
vt 0.905152 0.832093
vt 0.826641 0.832596
vt 0.865896 0.792872
vt 0.865897 0.832596
vt 0.826641 0.792872
vt 0.865896 0.749903
vt 0.865897 0.792872
vt 0.393473 0.821098
vt 0.172134 0.793174
vt 0.460744 0.749969
vt 0.500000 0.707000
vt 0.500000 0.749969
vt 0.500000 0.749969
vt 0.460744 0.792938
vt 0.460744 0.749969
vt 0.330040 0.707000
vt 0.595671 1.000000
vt 0.500000 0.914163
vt 0.595671 0.706934
vt 0.826641 0.792771
vt 0.730970 1.000000
vt 0.309127 0.065954
vt 0.559127 0.000244
vt 0.059127 0.000198
vt 0.809127 0.000244
vt 0.865897 0.749903
vt 0.336172 0.811495
vt 0.865897 0.749903
vt 0.267058 0.707000
vt 0.460744 0.792938
vt 0.427514 0.777441
vt 0.182163 0.741654
vt 0.427514 0.742221
vt 0.865897 0.792369
vt 0.826641 0.792872
vt 0.826641 0.749903
vt 0.424964 0.793174
vt 0.203625 0.821098
vt 0.460744 0.707000
vt 0.500000 0.792938
vt 0.298549 0.734924
vn 0.3827 0.0000 -0.9239
vn 0.9239 0.0000 -0.3827
vn 0.9239 0.0000 0.3827
vn 0.3827 0.0000 0.9239
vn -0.3827 0.0000 0.9239
vn -0.9239 0.0000 0.3827
vn 0.9230 -0.0425 -0.3823
vn -0.9239 0.0000 -0.3827
vn -0.3827 0.0000 -0.9239
vn 0.0000 -1.0000 0.0000
vn 0.3351 0.4829 -0.8090
vn -0.3351 0.4829 -0.8090
vn -0.8090 0.4829 -0.3351
vn -0.8090 0.4829 0.3351
vn -0.3351 0.4829 0.8090
vn 0.3351 0.4829 0.8090
vn 0.8090 0.4829 0.3351
vn 0.8090 0.4829 -0.3351
vn 0.3823 -0.0425 0.9230
vn -0.9230 -0.0425 0.3823
vn -0.3823 -0.0425 -0.9230
vn 0.3823 -0.0425 -0.9230
vn 0.9230 -0.0425 0.3823
vn -0.3823 -0.0425 0.9230
vn -0.9230 -0.0425 -0.3823
vn 0.0000 1.0000 -0.0000
vn 1.0000 0.0000 0.0000
vn 0.0000 0.0000 1.0000
vn -1.0000 0.0000 0.0000
vn 0.0000 0.0000 -1.0000
s off
f 2/1/1 3/2/1 1/3/1
f 4/4/2 5/5/2 3/6/2
f 6/7/3 7/8/3 5/5/3
f 8/9/4 9/10/4 7/11/4
f 10/12/5 11/13/5 9/10/5
f 12/14/6 13/15/6 11/16/6
f 17/17/7 27/18/7 24/19/7
f 14/20/8 15/21/8 13/15/8
f 16/22/9 1/3/9 15/23/9
f 3/24/10 7/25/10 11/26/10
f 2/1/11 17/27/11 4/4/11
f 16/22/12 18/28/12 2/1/12
f 14/20/13 19/29/13 16/30/13
f 12/14/14 20/31/14 14/20/14
f 12/32/15 22/33/15 21/34/15
f 10/12/16 23/35/16 22/33/16
f 6/7/17 23/36/17 8/37/17
f 4/4/18 24/19/18 6/7/18
f 27/18/3 40/38/3 32/39/3
f 22/33/19 32/40/19 31/41/19
f 21/42/20 29/43/20 20/31/20
f 19/44/21 26/45/21 18/28/21
f 18/28/22 25/46/22 17/27/22
f 23/36/23 27/18/23 32/39/23
f 22/33/24 30/47/24 21/34/24
f 20/31/25 28/48/25 19/29/25
f 31/41/5 38/49/5 30/47/5
f 28/48/8 37/50/8 36/51/8
f 25/52/2 35/53/2 27/18/2
f 32/40/4 39/54/4 31/41/4
f 30/55/6 37/50/6 29/43/6
f 26/45/9 36/56/9 34/57/9
f 26/45/1 33/58/1 25/46/1
f 34/59/26 41/60/26 33/61/26
f 36/62/26 42/63/26 34/59/26
f 37/64/26 43/65/26 36/62/26
f 38/66/26 44/67/26 37/64/26
f 39/68/26 45/69/26 38/66/26
f 40/70/26 46/71/26 39/68/26
f 35/72/26 47/73/26 40/70/26
f 33/61/26 48/74/26 35/72/26
f 50/75/26 43/65/26 44/67/26
f 51/76/27 56/77/27 52/78/27
f 42/63/26 51/79/26 41/60/26
f 48/74/26 52/80/26 47/73/26
f 52/80/26 45/69/26 46/71/26
f 45/69/26 50/75/26 44/67/26
f 43/65/26 49/81/26 42/63/26
f 41/60/26 51/79/26 48/74/26
f 47/73/26 52/80/26 46/71/26
f 56/82/28 58/83/28 54/84/28
f 52/85/28 54/84/28 50/86/28
f 50/87/29 53/88/29 49/89/29
f 49/90/30 55/91/30 51/92/30
f 57/93/30 63/94/30 59/95/30
f 54/96/10 65/97/10 53/98/10
f 53/99/30 59/95/30 55/91/30
f 58/83/28 66/100/28 54/84/28
f 62/101/26 63/102/26 61/103/26
f 59/104/27 64/105/27 60/106/27
f 60/107/28 62/108/28 58/83/28
f 58/109/29 61/110/29 57/111/29
f 66/112/29 69/113/29 65/114/29
f 67/115/27 72/116/27 68/117/27
f 60/118/26 71/119/26 59/120/26
f 53/99/30 69/121/30 57/93/30
f 56/82/28 72/122/28 60/107/28
f 55/123/10 68/124/10 56/125/10
f 57/126/26 70/127/26 58/128/26
f 59/95/30 67/129/30 55/91/30
f 2/1/1 4/4/1 3/2/1
f 4/4/2 6/7/2 5/5/2
f 6/7/3 8/37/3 7/8/3
f 8/9/4 10/12/4 9/10/4
f 10/12/5 12/32/5 11/13/5
f 12/14/6 14/20/6 13/15/6
f 17/17/7 25/52/7 27/18/7
f 14/20/8 16/30/8 15/21/8
f 16/22/9 2/1/9 1/3/9
f 15/130/10 1/131/10 3/24/10
f 3/24/10 5/132/10 7/25/10
f 7/25/10 9/133/10 11/26/10
f 11/26/10 13/134/10 15/130/10
f 15/130/10 3/24/10 11/26/10
f 2/1/11 18/28/11 17/27/11
f 16/22/12 19/44/12 18/28/12
f 14/20/13 20/31/13 19/29/13
f 12/14/14 21/42/14 20/31/14
f 12/32/15 10/12/15 22/33/15
f 10/12/16 8/9/16 23/35/16
f 6/7/17 24/19/17 23/36/17
f 4/4/18 17/17/18 24/19/18
f 27/18/3 35/53/3 40/38/3
f 22/33/19 23/35/19 32/40/19
f 21/42/20 30/55/20 29/43/20
f 19/44/21 28/135/21 26/45/21
f 18/28/22 26/45/22 25/46/22
f 23/36/23 24/19/23 27/18/23
f 22/33/24 31/41/24 30/47/24
f 20/31/25 29/43/25 28/48/25
f 31/41/5 39/54/5 38/49/5
f 28/48/8 29/43/8 37/50/8
f 25/52/2 33/136/2 35/53/2
f 32/40/4 40/137/4 39/54/4
f 30/55/6 38/138/6 37/50/6
f 26/45/9 28/135/9 36/56/9
f 26/45/1 34/57/1 33/58/1
f 34/59/26 42/63/26 41/60/26
f 36/62/26 43/65/26 42/63/26
f 37/64/26 44/67/26 43/65/26
f 38/66/26 45/69/26 44/67/26
f 39/68/26 46/71/26 45/69/26
f 40/70/26 47/73/26 46/71/26
f 35/72/26 48/74/26 47/73/26
f 33/61/26 41/60/26 48/74/26
f 50/75/26 49/81/26 43/65/26
f 51/76/27 55/139/27 56/77/27
f 42/63/26 49/81/26 51/79/26
f 48/74/26 51/79/26 52/80/26
f 52/80/26 50/75/26 45/69/26
f 56/82/28 60/107/28 58/83/28
f 52/85/28 56/82/28 54/84/28
f 50/87/29 54/96/29 53/88/29
f 49/90/30 53/99/30 55/91/30
f 57/93/30 61/140/30 63/94/30
f 54/96/10 66/141/10 65/97/10
f 53/99/30 57/93/30 59/95/30
f 58/83/28 70/142/28 66/100/28
f 62/101/26 64/143/26 63/102/26
f 59/104/27 63/144/27 64/105/27
f 60/107/28 64/145/28 62/108/28
f 58/109/29 62/146/29 61/110/29
f 66/112/29 70/147/29 69/113/29
f 67/115/27 71/148/27 72/116/27
f 60/118/26 72/149/26 71/119/26
f 53/99/30 65/150/30 69/121/30
f 56/82/28 68/151/28 72/122/28
f 55/123/10 67/152/10 68/124/10
f 57/126/26 69/153/26 70/127/26
f 59/95/30 71/154/30 67/129/30
