# Blender v2.90.1 OBJ File: 'cube.blend'
# www.blender.org
o q_Cylinder.003
v 0.000000 0.000000 -0.400000
v 0.000000 0.054483 -0.400000
v 0.282843 0.000000 -0.282843
v 0.282843 0.054483 -0.282843
v 0.400000 0.000000 0.000000
v 0.400000 0.054483 0.000000
v 0.282843 0.000000 0.282843
v 0.282843 0.054483 0.282843
v -0.000000 0.000000 0.400000
v -0.000000 0.054483 0.400000
v -0.282843 0.000000 0.282843
v -0.282843 0.054483 0.282843
v -0.400000 0.000000 -0.000000
v -0.400000 0.054483 -0.000000
v -0.282843 0.000000 -0.282843
v -0.282843 0.054483 -0.282843
v 0.101808 0.477872 -0.101808
v -0.000000 0.477872 -0.143978
v 0.143978 0.477872 0.000000
v 0.101808 0.477872 0.101808
v -0.000000 0.477872 0.143978
v -0.101808 0.477872 0.101808
v -0.143978 0.477872 -0.000000
v -0.101808 0.477872 -0.101808
v 0.213146 0.477872 -0.213146
v 0.000000 0.477872 -0.301434
v 0.301434 0.477872 0.000000
v 0.213146 0.477872 0.213146
v -0.000000 0.477872 0.301434
v -0.213146 0.477872 0.213146
v -0.301434 0.477872 -0.000000
v -0.213146 0.477872 -0.213146
v 0.047569 0.914277 -0.047569
v -0.000000 0.914277 -0.067272
v 0.067272 0.914277 0.000000
v 0.047569 0.914277 0.047569
v -0.000000 0.914277 0.067272
v -0.047569 0.914277 0.047569
v -0.067272 0.914277 -0.000000
v -0.047569 0.914277 -0.047569
v 0.126582 1.095861 -0.126582
v 0.000000 1.095861 -0.179015
v 0.179015 1.095861 0.000000
v 0.126582 1.095861 0.126582
v 0.000000 1.095861 0.179015
v -0.126582 1.095861 0.126582
v -0.179015 1.095861 -0.000000
v -0.126582 1.095861 -0.126582
v 0.047902 1.390628 -0.047902
v 0.000000 1.390628 -0.067744
v 0.067744 1.390628 0.000000
v 0.047902 1.390628 0.047902
v 0.000000 1.390628 0.067744
v -0.047902 1.390628 0.047902
v -0.067744 1.390628 0.000000
v -0.047902 1.390628 -0.047902
v 0.151330 1.570290 -0.151330
v 0.000000 1.570290 -0.214013
v 0.214013 1.570290 0.000000
v 0.151330 1.570290 0.151330
v 0.000000 1.570290 0.214013
v -0.151330 1.570290 0.151330
v -0.214013 1.570290 -0.000000
v -0.151330 1.570290 -0.151330
v 0.151330 1.736997 -0.151330
v 0.000000 1.736997 -0.214013
v 0.214013 1.736997 0.000000
v 0.151330 1.736997 0.151330
v 0.000000 1.736997 0.214013
v -0.151330 1.736997 0.151330
v -0.214013 1.736997 -0.000000
v -0.151330 1.736997 -0.151330
v 0.171241 1.570290 -0.199398
v 0.019911 1.570290 -0.262082
v 0.199399 1.570290 0.171241
v 0.262082 1.570290 0.019910
v -0.171241 1.570290 0.199398
v -0.019910 1.570290 0.262082
v -0.199398 1.570290 -0.171241
v -0.262081 1.570290 -0.019910
v 0.171241 1.736997 -0.199398
v 0.019911 1.736997 -0.262082
v 0.199399 1.736997 0.171241
v 0.262082 1.736997 0.019910
v -0.171241 1.736997 0.199398
v -0.019910 1.736997 0.262082
v -0.199398 1.736997 -0.171241
v -0.262081 1.736997 -0.019910
v 0.151330 1.861548 -0.151330
v 0.000000 1.861548 -0.214013
v 0.151330 1.861548 0.151330
v 0.214013 1.861548 0.000000
v -0.151330 1.861548 0.151330
v 0.000000 1.861548 0.214013
v -0.151330 1.861548 -0.151330
v -0.214013 1.861548 -0.000000
v 0.171241 1.861548 -0.199398
v 0.019911 1.861548 -0.262082
v 0.199399 1.861548 0.171241
v 0.262082 1.861548 0.019910
v -0.171241 1.861548 0.199398
v -0.019910 1.861548 0.262082
v -0.199398 1.861548 -0.171241
v -0.262081 1.861548 -0.019910
vt 0.288995 0.844496
vt 0.264055 0.981787
vt 0.264055 0.844496
vt 0.944630 0.959954
vt 0.976131 0.862875
vt 0.969570 0.959954
vt 0.951191 0.862875
vt 0.976131 0.725585
vt 0.944630 0.725585
vt 0.976131 0.628505
vt 0.969570 0.725585
vt 0.951191 0.628505
vt 0.976131 0.491215
vt 0.716351 0.822664
vt 0.747852 0.725585
vt 0.741291 0.822664
vt 0.951191 0.491215
vt 0.750214 0.584569
vt 0.750214 0.535151
vt 0.722912 0.725585
vt 0.747852 0.588294
vt 0.295556 0.747417
vt 0.270616 0.747417
vt 0.000000 0.097079
vt 0.239758 0.000000
vt 0.339069 0.234370
vt 0.366537 0.562877
vt 0.264055 0.570799
vt 0.338894 0.497642
vt 0.722912 0.588294
vt 0.519573 0.597287
vt 0.716351 0.491215
vt 0.489972 0.937850
vt 0.288995 0.981787
vt 0.750214 0.769521
vt 0.951191 0.725585
vt 0.521935 0.681648
vt 0.747852 0.619512
vt 0.521935 0.632231
vt 0.750214 0.818938
vt 0.700251 0.491215
vt 0.635521 0.289528
vt 0.659142 0.289528
vt 0.330791 0.647238
vt 0.330791 0.597821
vt 0.417091 0.682181
vt 0.338894 0.747417
vt 0.366537 0.682181
vt 0.452837 0.597821
vt 0.519573 0.674259
vt 0.452837 0.647238
vt 0.444733 0.497642
vt 0.417091 0.562877
vt 0.264055 0.674259
vt 0.444733 0.747417
vt 0.519573 0.570799
vt 0.421987 0.292655
vt 0.412841 0.216007
vt 0.438724 0.292439
vt 0.074839 0.822664
vt 0.139569 0.620977
vt 0.180678 0.822664
vt 0.414066 0.496673
vt 0.462271 0.290612
vt 0.519573 0.488488
vt 0.806090 0.000000
vt 0.741361 0.201687
vt 0.700251 0.000000
vt 0.880930 0.004833
vt 0.764981 0.201687
vt 0.594412 0.491215
vt 0.618819 0.288449
vt 0.099246 0.619898
vt 0.115949 0.620977
vt 0.339069 0.497642
vt 0.829044 0.282751
vt 0.765064 0.414825
vt 0.784599 0.279881
vt 0.615904 0.211334
vt 0.678759 0.211334
vt 0.159186 0.542783
vt 0.475499 0.211147
vt 0.721743 0.279881
vt 0.519573 0.204848
vt 0.478834 0.288246
vt 0.421394 0.079975
vt 0.464522 0.000000
vt 0.445105 0.078136
vt 0.571459 0.208463
vt 0.635439 0.076389
vt 0.461784 0.075752
vt 0.368302 0.216582
vt 0.659225 0.076389
vt 0.096331 0.542783
vt 0.139652 0.407838
vt 0.741278 0.414825
vt 0.180678 0.598969
vt 0.233813 0.676997
vt 0.180678 0.673565
vt 0.790743 0.491215
vt 0.715599 0.491215
vt 0.643562 0.871017
vt 0.705556 0.822664
vt 0.705556 0.896119
vt 0.643562 0.871017
vt 0.581567 0.822664
vt 0.643562 0.847766
vt 0.519573 0.847766
vt 0.581567 0.896119
vt 0.519573 0.871017
vt 0.880930 0.416087
vt 0.942924 0.464441
vt 0.880930 0.439339
vt 0.684904 0.000000
vt 0.115866 0.407838
vt 0.165331 0.331449
vt 0.053135 0.822664
vt 0.181413 0.874604
vt 0.128279 1.000000
vt 0.180678 0.331449
vt 0.233813 0.409477
vt 0.180678 0.406045
vt 0.233813 0.595538
vt 0.180678 0.524374
vt 0.233813 0.520942
vt 0.281550 0.461778
vt 0.334685 0.390613
vt 0.334685 0.465209
vt 0.979942 0.334112
vt 0.956073 0.260657
vt 0.979942 0.260657
vt 0.233813 0.334881
vt 0.257682 0.409477
vt 0.705556 0.878396
vt 0.729425 0.822664
vt 0.729425 0.878396
vt 0.729425 0.952992
vt 0.705556 0.952992
vt 0.257682 0.732730
vt 0.182538 0.807325
vt 0.182538 0.732730
vt 0.880930 0.260657
vt 0.956074 0.186061
vt 0.880930 0.130329
vt 0.956073 0.055733
vt 0.956074 0.130328
vt 0.956074 0.260657
vt 0.880930 0.335253
vt 0.880930 0.260657
vt 0.489972 0.803150
vt 0.513841 0.877745
vt 0.489972 0.877745
vt 0.513841 0.747417
vt 0.513841 0.803150
vt 0.979942 0.055733
vt 0.966793 0.390985
vt 0.942924 0.464441
vt 0.942924 0.390985
vt 0.257682 0.595538
vt 0.239552 0.936513
vt 0.182538 0.863058
vt 0.239552 0.863058
vt 0.263420 0.936513
vt 0.239552 0.863058
vt 0.263420 0.863058
vt 0.257682 0.387182
vt 0.281550 0.387182
vt 0.281550 0.331449
vt 0.956073 0.186061
vt 0.979942 0.260657
vt 0.956074 0.260657
vt 0.233813 0.602401
vt 0.257682 0.676997
vt 0.489972 0.877745
vt 0.513841 0.951201
vt 0.489972 0.951201
vt 0.976131 0.638125
vt 1.000000 0.711580
vt 0.976131 0.711580
vt 0.976131 0.491215
vt 1.000000 0.564670
vt 0.976131 0.564670
vt 0.976131 0.564670
vt 1.000000 0.638125
vt 0.976131 0.638125
vt 0.966793 0.464441
vt 0.990661 0.390985
vt 0.990661 0.464441
vt 0.257682 0.465209
vt 0.257682 0.520942
vt 0.581567 0.896119
vt 0.638581 0.969574
vt 0.581567 0.969574
vt 0.979942 0.000000
vt 0.956073 0.335253
vt 0.880930 0.390985
vt 0.979942 0.130329
vt 0.979942 0.186061
vt 0.700576 0.969574
vt 0.643562 0.896119
vt 0.700576 0.896119
vt 0.880930 0.055733
vt 0.956073 0.000000
vt 0.233813 0.732730
vt 0.880930 0.186061
vt 0.956074 0.130329
vt 0.233813 0.465209
vt 0.576587 0.969574
vt 0.519573 0.896119
vt 0.576587 0.896119
vt 0.257682 0.807325
vt 0.182538 0.863058
vt 0.099311 0.331449
vt 0.000000 0.234370
vt 0.099311 0.000000
vt 0.339069 0.097079
vt 0.239758 0.331449
vt 0.489972 0.888433
vt 0.519573 0.716591
vt 0.747852 0.853882
vt 0.781683 0.202766
vt 0.519573 0.486381
vt 0.000000 0.817830
vt 0.781883 0.415912
vt 0.389614 0.005811
vt 0.618620 0.075303
vt 0.404539 0.080193
vt 0.643562 0.847766
vt 0.581567 0.896119
vt 0.581567 0.822664
vt 0.942924 0.390985
vt 0.609760 0.000000
vt 0.090187 0.331449
vt 0.128279 0.822664
vt 0.181413 0.948059
vt 0.053135 1.000000
vt 0.000000 0.948059
vt 0.000000 0.874604
vt 0.180678 0.598969
vt 0.956074 0.334112
vt 0.257682 0.334881
vt 0.705556 0.822664
vt 0.489972 0.747417
vt 0.979942 0.130328
vt 0.966793 0.464441
vt 0.182538 0.936513
vt 0.239552 0.936513
vt 0.257682 0.461778
vt 0.257682 0.331449
vt 0.257682 0.602401
vt 0.513841 0.877745
vt 1.000000 0.638125
vt 1.000000 0.491215
vt 1.000000 0.564670
vt 0.966793 0.390985
vt 0.233813 0.465209
vt 0.638581 0.896119
vt 0.956073 0.390985
vt 0.956073 0.130329
vt 0.643562 0.969574
vt 0.880930 0.000000
vt 0.257682 0.732730
vt 0.880930 0.130329
vt 0.257682 0.465209
vt 0.519573 0.969574
vt 0.257682 0.863058
vn 0.3827 0.0000 -0.9239
vn 0.9239 0.0000 -0.3827
vn 0.9239 0.0000 0.3827
vn 0.3827 0.0000 0.9239
vn -0.3827 0.0000 0.9239
vn -0.9239 0.0000 0.3827
vn -0.3341 0.4877 0.8065
vn -0.9239 0.0000 -0.3827
vn -0.3827 0.0000 -0.9239
vn 0.0000 -1.0000 0.0000
vn -0.3341 0.4877 -0.8065
vn 0.3341 0.4877 -0.8065
vn 0.8065 0.4877 0.3341
vn -0.8065 0.4877 0.3341
vn 0.3341 0.4877 0.8065
vn -0.8065 0.4877 -0.3341
vn 0.8065 0.4877 -0.3341
vn -0.8278 0.4441 -0.3429
vn 0.8032 -0.4942 -0.3327
vn -0.3429 0.4441 0.8278
vn 0.8278 0.4441 0.3429
vn 0.3429 0.4441 -0.8278
vn -0.3429 0.4441 -0.8278
vn -0.8278 0.4441 0.3429
vn 0.3429 0.4441 0.8278
vn 0.8278 0.4441 -0.3429
vn -0.3613 0.3293 -0.8724
vn -0.8032 -0.4942 -0.3327
vn -0.3327 -0.4942 0.8032
vn 0.8032 -0.4942 0.3327
vn 0.3327 -0.4942 -0.8032
vn -0.3327 -0.4942 -0.8032
vn -0.8032 -0.4942 0.3327
vn 0.3327 -0.4942 0.8032
vn 0.7383 -0.6011 0.3058
vn -0.8723 0.3293 0.3613
vn 0.3613 0.3293 0.8724
vn 0.8723 0.3293 -0.3613
vn -0.8724 0.3293 -0.3613
vn -0.3613 0.3293 0.8723
vn 0.8724 0.3293 0.3613
vn 0.3613 0.3293 -0.8724
vn 0.3058 -0.6011 -0.7383
vn -0.3058 -0.6011 -0.7383
vn -0.7383 -0.6011 0.3058
vn 0.3058 -0.6011 0.7383
vn 0.7383 -0.6011 -0.3058
vn -0.7383 -0.6011 -0.3058
vn -0.3058 -0.6011 0.7383
vn 0.0000 1.0000 0.0000
vn -0.3613 0.3293 -0.8723
vn 0.3613 0.3293 0.8723
vn -0.8723 0.3293 -0.3613
vn 0.8723 0.3293 0.3613
vn 0.3613 0.3293 -0.8723
s off
f 2/1/1 3/2/1 1/3/1
f 4/4/2 5/5/2 3/6/2
f 6/7/3 7/8/3 5/5/3
f 8/9/4 9/10/4 7/11/4
f 10/12/5 11/13/5 9/10/5
f 12/14/6 13/15/6 11/16/6
f 12/17/7 21/18/7 22/19/7
f 14/20/8 15/21/8 13/15/8
f 16/22/9 1/3/9 15/23/9
f 3/24/10 7/25/10 11/26/10
f 17/27/10 26/28/10 25/29/10
f 16/30/11 18/31/11 2/32/11
f 2/1/12 17/33/12 4/34/12
f 6/7/13 20/35/13 8/36/13
f 12/14/14 23/37/14 14/20/14
f 10/12/15 20/38/15 21/18/15
f 14/20/16 24/39/16 16/30/16
f 4/4/17 19/40/17 6/7/17
f 32/41/18 39/42/18 40/43/18
f 24/44/10 26/28/10 18/45/10
f 22/46/10 31/47/10 23/48/10
f 20/49/10 29/50/10 21/51/10
f 17/27/10 27/52/10 19/53/10
f 23/48/10 32/54/10 24/44/10
f 21/51/10 30/55/10 22/46/10
f 19/53/10 28/56/10 20/49/10
f 33/57/19 43/58/19 35/59/19
f 29/60/20 38/61/20 30/62/20
f 27/63/21 36/64/21 28/65/21
f 26/66/22 33/67/22 25/68/22
f 32/69/23 34/70/23 26/66/23
f 31/71/24 38/72/24 39/42/24
f 29/60/25 36/73/25 37/74/25
f 25/75/26 35/59/26 27/63/26
f 48/76/27 50/77/27 42/78/27
f 40/43/28 47/79/28 48/80/28
f 37/74/29 46/81/29 38/61/29
f 35/59/30 44/82/30 36/64/30
f 34/70/31 41/83/31 33/67/31
f 34/70/32 48/76/32 42/78/32
f 38/72/33 47/79/33 39/42/33
f 36/64/34 45/84/34 37/85/34
f 51/86/35 60/87/35 52/88/35
f 46/89/36 55/90/36 47/79/36
f 44/82/37 53/91/37 45/84/37
f 41/92/38 51/86/38 43/58/38
f 47/79/39 56/93/39 48/80/39
f 45/94/40 54/95/40 46/81/40
f 43/58/41 52/88/41 44/82/41
f 42/78/42 49/96/42 41/83/42
f 58/97/9 72/98/9 66/99/9
f 49/96/43 58/100/43 57/101/43
f 50/102/44 64/103/44 58/104/44
f 54/105/45 63/106/45 55/107/45
f 52/108/46 61/109/46 53/110/46
f 49/111/47 59/112/47 51/113/47
f 55/90/48 64/114/48 56/93/48
f 53/115/49 62/116/49 54/95/49
f 67/117/50 66/118/50 71/119/50
f 63/120/6 70/121/6 71/122/6
f 61/123/4 68/124/4 69/125/4
f 57/126/2 67/127/2 59/128/2
f 61/129/10 77/130/10 62/131/10
f 62/132/8 85/133/8 70/121/8
f 66/134/8 98/135/8 82/136/8
f 66/134/8 74/137/8 58/138/8
f 80/139/8 87/140/8 79/141/8
f 78/142/5 85/143/5 77/130/5
f 76/144/3 83/145/3 75/146/3
f 74/147/1 81/148/1 73/149/1
f 71/150/5 80/151/5 63/152/5
f 71/150/5 104/153/5 88/154/5
f 68/155/5 75/146/5 83/145/5
f 64/156/10 80/157/10 79/158/10
f 69/125/3 78/159/3 61/123/3
f 68/160/8 92/161/8 67/162/8
f 58/163/10 73/164/10 57/165/10
f 57/126/3 81/166/3 65/167/3
f 81/166/3 89/168/3 65/167/3
f 67/169/1 76/170/1 59/171/1
f 64/172/1 87/173/1 72/98/1
f 59/174/10 75/175/10 60/176/10
f 91/177/50 100/178/50 92/179/50
f 93/180/50 102/181/50 94/182/50
f 95/183/50 104/184/50 96/185/50
f 90/186/50 97/187/50 98/188/50
f 69/125/3 102/189/3 86/190/3
f 70/191/1 94/192/1 69/193/1
f 83/145/5 91/194/5 68/155/5
f 82/195/1 97/196/1 81/148/1
f 67/169/1 100/197/1 84/198/1
f 72/199/3 96/200/3 71/201/3
f 84/202/3 99/203/3 83/145/3
f 87/173/1 95/204/1 72/98/1
f 86/205/5 101/206/5 85/143/5
f 85/133/8 93/207/8 70/121/8
f 65/208/5 90/209/5 66/210/5
f 88/211/8 103/212/8 87/140/8
f 2/1/1 4/34/1 3/2/1
f 4/4/2 6/7/2 5/5/2
f 6/7/3 8/36/3 7/8/3
f 8/9/4 10/12/4 9/10/4
f 10/12/5 12/17/5 11/13/5
f 12/14/6 14/20/6 13/15/6
f 12/17/7 10/12/7 21/18/7
f 14/20/8 16/30/8 15/21/8
f 16/22/9 2/1/9 1/3/9
f 15/213/10 1/214/10 3/24/10
f 3/24/10 5/215/10 7/25/10
f 7/25/10 9/216/10 11/26/10
f 11/26/10 13/217/10 15/213/10
f 15/213/10 3/24/10 11/26/10
f 17/27/10 18/45/10 26/28/10
f 16/30/11 24/39/11 18/31/11
f 2/1/12 18/218/12 17/33/12
f 6/7/13 19/40/13 20/35/13
f 12/14/14 22/219/14 23/37/14
f 10/12/15 8/9/15 20/38/15
f 14/20/16 23/37/16 24/39/16
f 4/4/17 17/220/17 19/40/17
f 32/41/18 31/71/18 39/42/18
f 24/44/10 32/54/10 26/28/10
f 22/46/10 30/55/10 31/47/10
f 20/49/10 28/56/10 29/50/10
f 17/27/10 25/29/10 27/52/10
f 23/48/10 31/47/10 32/54/10
f 21/51/10 29/50/10 30/55/10
f 19/53/10 27/52/10 28/56/10
f 33/57/19 41/92/19 43/58/19
f 29/60/20 37/74/20 38/61/20
f 27/63/21 35/59/21 36/64/21
f 26/66/22 34/70/22 33/67/22
f 32/69/23 40/221/23 34/70/23
f 31/71/24 30/222/24 38/72/24
f 29/60/25 28/223/25 36/73/25
f 25/75/26 33/57/26 35/59/26
f 48/76/51 56/224/51 50/77/51
f 40/43/28 39/42/28 47/79/28
f 37/74/29 45/94/29 46/81/29
f 35/59/30 43/58/30 44/82/30
f 34/70/31 42/78/31 41/83/31
f 34/70/32 40/221/32 48/76/32
f 38/72/33 46/89/33 47/79/33
f 36/64/34 44/82/34 45/84/34
f 51/86/35 59/225/35 60/87/35
f 46/89/36 54/226/36 55/90/36
f 44/82/52 52/88/52 53/91/52
f 41/92/38 49/227/38 51/86/38
f 47/79/53 55/90/53 56/93/53
f 45/94/40 53/115/40 54/95/40
f 43/58/54 51/86/54 52/88/54
f 42/78/55 50/77/55 49/96/55
f 58/97/9 64/172/9 72/98/9
f 49/96/43 50/77/43 58/100/43
f 50/102/44 56/228/44 64/103/44
f 54/105/45 62/229/45 63/106/45
f 52/108/46 60/230/46 61/109/46
f 49/111/47 57/231/47 59/112/47
f 55/90/48 63/232/48 64/114/48
f 53/115/49 61/233/49 62/116/49
f 67/117/50 65/234/50 66/118/50
f 66/118/50 72/235/50 71/119/50
f 71/119/50 70/236/50 69/237/50
f 69/237/50 68/238/50 71/119/50
f 68/238/50 67/117/50 71/119/50
f 63/120/6 62/132/6 70/121/6
f 61/123/4 60/239/4 68/124/4
f 57/126/2 65/167/2 67/127/2
f 61/129/10 78/240/10 77/130/10
f 62/132/8 77/241/8 85/133/8
f 66/134/8 90/242/8 98/135/8
f 66/134/8 82/136/8 74/137/8
f 80/139/8 88/211/8 87/140/8
f 78/142/5 86/205/5 85/143/5
f 76/144/3 84/202/3 83/145/3
f 74/147/1 82/195/1 81/148/1
f 71/150/5 88/154/5 80/151/5
f 71/150/5 96/243/5 104/153/5
f 68/155/5 60/244/5 75/146/5
f 64/156/10 63/245/10 80/157/10
f 69/125/3 86/190/3 78/159/3
f 68/160/8 91/246/8 92/161/8
f 58/163/10 74/247/10 73/164/10
f 57/126/3 73/248/3 81/166/3
f 81/166/3 97/249/3 89/168/3
f 67/169/1 84/198/1 76/170/1
f 64/172/1 79/250/1 87/173/1
f 59/174/10 76/251/10 75/175/10
f 91/177/50 99/252/50 100/178/50
f 93/180/50 101/253/50 102/181/50
f 95/183/50 103/254/50 104/184/50
f 90/186/50 89/255/50 97/187/50
f 69/125/3 94/256/3 102/189/3
f 70/191/1 93/257/1 94/192/1
f 83/145/5 99/203/5 91/194/5
f 82/195/1 98/258/1 97/196/1
f 67/169/1 92/259/1 100/197/1
f 72/199/3 95/260/3 96/200/3
f 84/202/3 100/261/3 99/203/3
f 87/173/1 103/262/1 95/204/1
f 86/205/5 102/263/5 101/206/5
f 85/133/8 101/264/8 93/207/8
f 65/208/5 89/265/5 90/209/5
f 88/211/8 104/266/8 103/212/8
