# Blender v2.90.1 OBJ File: 'cube.blend'
# www.blender.org
o r_Cylinder.005
v 0.000000 0.000000 -0.400000
v 0.000000 0.047692 -0.400000
v 0.282843 0.000000 -0.282843
v 0.282843 0.047692 -0.282843
v 0.400000 0.000000 0.000000
v 0.400000 0.047692 0.000000
v 0.282843 0.000000 0.282843
v 0.282843 0.047692 0.282843
v -0.000000 0.000000 0.400000
v -0.000000 0.047692 0.400000
v -0.282843 0.000000 0.282843
v -0.282843 0.047692 0.282843
v -0.400000 0.000000 -0.000000
v -0.400000 0.047692 -0.000000
v -0.282843 0.000000 -0.282843
v -0.282843 0.047692 -0.282843
v 0.181884 0.082945 -0.181884
v 0.000000 0.082945 -0.257223
v -0.181884 0.082945 -0.181884
v -0.257223 0.082945 -0.000000
v -0.181884 0.082945 0.181884
v -0.000000 0.082945 0.257223
v 0.181884 0.082945 0.181884
v 0.257223 0.082945 0.000000
v 0.216295 0.739275 -0.216295
v -0.000000 0.739275 -0.305888
v 0.305887 0.739275 0.000000
v -0.216295 0.739275 -0.216295
v -0.305888 0.739275 -0.000000
v -0.216295 0.739275 0.216295
v -0.000000 0.739275 0.305888
v 0.216295 0.739275 0.216295
v 0.216295 0.844643 -0.216295
v -0.000000 0.844643 -0.305888
v 0.305887 0.844643 0.000000
v -0.216295 0.844643 -0.216295
v -0.305888 0.844643 -0.000000
v -0.216295 0.844643 0.216295
v -0.000000 0.844643 0.305888
v 0.216295 0.844643 0.216295
v 0.169639 0.844643 -0.169639
v -0.000000 0.844643 -0.239906
v -0.169639 0.844643 -0.169639
v -0.239906 0.844643 -0.000000
v -0.169639 0.844643 0.169639
v -0.000000 0.844643 0.239906
v 0.169639 0.844643 0.169639
v 0.239906 0.844643 0.000000
v 0.169639 0.767315 -0.169639
v -0.000000 0.767315 -0.239906
v 0.239906 0.767315 0.000000
v -0.169639 0.767315 -0.169639
v -0.239906 0.767315 -0.000000
v -0.169639 0.767315 0.169639
v -0.000000 0.767315 0.239906
v 0.169639 0.767315 0.169639
v 0.305887 0.947679 0.000000
v 0.216295 0.947679 -0.216295
v -0.000000 0.947679 -0.305888
v -0.216295 0.947679 -0.216295
v -0.305888 0.947679 -0.000000
v -0.216295 0.947679 0.216295
v -0.000000 0.947679 0.305888
v 0.216295 0.947679 0.216295
v 0.239906 0.947679 0.000000
v 0.169639 0.947679 -0.169639
v -0.000000 0.947679 -0.239906
v -0.169639 0.947679 -0.169639
v -0.239906 0.947679 -0.000000
v -0.169639 0.947679 0.169639
v -0.000000 0.947679 0.239906
v 0.169639 0.947679 0.169639
vt 0.975435 0.697869
vt 0.999194 0.551532
vt 1.000000 0.697894
vt 0.974629 0.551507
vt 1.000000 0.395814
vt 0.975435 0.999975
vt 0.999194 0.853638
vt 1.000000 1.000000
vt 0.974629 0.853612
vt 1.000000 0.697920
vt 0.950063 0.791578
vt 0.973658 0.675654
vt 0.974629 0.791578
vt 0.949092 0.675654
vt 0.973658 0.511713
vt 0.494370 0.395789
vt 0.405702 0.748200
vt 0.403832 0.396421
vt 0.949091 0.511713
vt 0.974629 0.395789
vt 0.973652 0.814766
vt 0.949086 0.978707
vt 0.949086 0.814766
vt 0.000000 0.115924
vt 0.269217 0.000000
vt 0.380730 0.279865
vt 0.492244 0.000000
vt 0.448680 0.145183
vt 0.380730 0.115924
vt 0.649947 0.000000
vt 0.520389 0.070637
vt 0.761461 0.115924
vt 0.621802 0.070637
vt 0.693511 0.250606
vt 0.693511 0.145183
vt 0.649947 0.395789
vt 0.761461 0.279865
vt 0.520389 0.325152
vt 0.621802 0.325152
vt 0.492244 0.395789
vt 0.448680 0.250606
vt 0.380730 0.279865
vt 0.627919 0.748200
vt 0.513369 0.804097
vt 0.513369 0.747678
vt 0.716587 0.395789
vt 0.626050 0.396421
vt 0.023160 0.859694
vt 0.085276 0.507384
vt 0.094870 0.859044
vt 0.267992 0.859694
vt 0.205875 0.507384
vt 0.291152 0.508156
vt 0.291152 0.747678
vt 0.307506 0.395982
vt 0.529724 0.395982
vt 0.196282 0.859044
vt 0.745179 0.859044
vt 0.856185 0.507384
vt 0.846592 0.859044
vt 0.814535 0.237380
vt 0.854367 0.335706
vt 0.814535 0.335706
vt 0.205875 0.450962
vt 0.735586 0.507384
vt 0.856185 0.450962
vt 0.513369 0.747448
vt 0.405702 0.804619
vt 0.735586 0.747448
vt 0.627919 0.804619
vt 0.000000 0.508157
vt 0.085276 0.450962
vt 0.291152 0.451735
vt 0.291152 0.804097
vt 0.914655 0.357728
vt 0.854367 0.259506
vt 0.880867 0.237380
vt 0.761461 0.237380
vt 0.062803 0.985063
vt 0.031402 0.873215
vt 0.062803 0.859694
vt 0.157008 0.859812
vt 0.125607 0.914867
vt 0.125607 0.859694
vt 0.766988 0.859044
vt 0.735586 0.970892
vt 0.735586 0.872566
vt 0.513369 0.859268
vt 0.829791 0.984413
vt 0.798389 0.872566
vt 0.829791 0.859044
vt 0.829249 0.335706
vt 0.795355 0.390912
vt 0.795355 0.335741
vt 0.922927 0.000000
vt 0.989809 0.167853
vt 0.828342 0.237380
vt 0.896015 0.726806
vt 0.856185 0.633592
vt 0.896015 0.633411
vt 0.896015 0.908404
vt 0.856185 0.815190
vt 0.896015 0.815008
vt 0.908677 0.395789
vt 0.949091 0.465316
vt 0.909259 0.465316
vt 0.909259 0.563642
vt 0.948509 0.633169
vt 0.908677 0.633169
vt 0.896952 0.814585
vt 0.856185 0.726987
vt 0.896952 0.996182
vt 0.856185 0.908585
vt 0.949091 0.563642
vt 0.798389 0.984413
vt 0.766988 0.872566
vt 0.798389 0.859044
vt 0.094205 0.985063
vt 0.062803 0.873215
vt 0.094205 0.859694
vt 0.031402 0.985063
vt 0.000000 0.873215
vt 0.031402 0.859694
vt 0.914655 0.237380
vt 0.946057 0.349227
vt 0.914655 0.362749
vt 0.795355 0.335706
vt 0.761461 0.390912
vt 0.761461 0.335741
vt 0.291152 0.859267
vt 0.829791 0.914215
vt 0.855550 0.859351
vt 0.855550 0.914522
vt 0.219811 0.859694
vt 0.188410 0.914985
vt 0.188410 0.859812
vt 0.735586 0.450962
vt 0.856185 0.395789
vt 0.856185 0.465316
vt 0.219811 0.914865
vt 0.245571 0.860001
vt 0.245571 0.915172
vt 0.949086 0.908162
vt 0.188410 0.859694
vt 0.157008 0.914985
vt 0.157008 0.859812
vt 0.205875 0.395789
vt 0.094205 0.914867
vt 0.125607 0.859812
vt 0.125607 0.914985
vt 0.949086 0.726564
vt 0.975435 0.395789
vt 0.975435 0.697894
vt 0.950063 0.395789
vt 0.973652 0.978707
vt 0.111513 0.395789
vt 0.000000 0.279865
vt 0.111513 0.000000
vt 0.380730 0.115924
vt 0.269217 0.395789
vt 0.854367 0.237380
vt 0.513369 0.803867
vt 0.735586 0.803867
vt 0.000000 0.451735
vt 0.880867 0.353894
vt 0.761461 0.335706
vt 0.031402 0.971541
vt 0.157008 0.914985
vt 0.766988 0.984413
vt 0.627919 0.859790
vt 0.798389 0.970892
vt 0.829249 0.390877
vt 0.989809 0.069527
vt 0.922927 0.237380
vt 0.761461 0.167853
vt 0.761461 0.069527
vt 0.828342 0.000000
vt 0.948509 0.395789
vt 0.857123 0.814766
vt 0.857123 0.996364
vt 0.766988 0.970892
vt 0.062803 0.971541
vt 0.000000 0.971541
vt 0.946057 0.250901
vt 0.795355 0.390877
vt 0.405702 0.859790
vt 0.829791 0.859044
vt 0.219811 0.914867
vt 0.735586 0.395789
vt 0.856185 0.563642
vt 0.219811 0.859694
vt 0.949086 0.814766
vt 0.188410 0.914867
vt 0.085276 0.395789
vt 0.949086 0.633169
vn 0.3827 0.0000 -0.9239
vn 0.9239 0.0000 -0.3827
vn 0.9239 0.0000 0.3827
vn 0.3827 0.0000 0.9239
vn -0.3827 0.0000 0.9239
vn -0.9239 0.0000 0.3827
vn 0.3818 -0.0683 -0.9217
vn -0.9239 0.0000 -0.3827
vn -0.3827 0.0000 -0.9239
vn 0.0000 -1.0000 0.0000
vn 0.0988 0.9661 -0.2385
vn -0.0988 0.9661 -0.2385
vn -0.2385 0.9661 -0.0988
vn -0.2385 0.9661 0.0988
vn -0.0988 0.9661 0.2385
vn 0.0988 0.9661 0.2385
vn 0.2385 0.9661 0.0988
vn 0.2385 0.9661 -0.0988
vn 0.9217 -0.0683 0.3818
vn -0.3818 -0.0683 0.9217
vn -0.9217 -0.0683 -0.3818
vn 0.9217 -0.0683 -0.3818
vn 0.3818 -0.0683 0.9217
vn -0.9217 -0.0683 0.3818
vn -0.3818 -0.0683 -0.9217
vn 0.0000 1.0000 0.0000
vn -1.0000 0.0000 -0.0000
vn 0.7071 0.0000 0.7071
vn 0.7071 0.0000 -0.7071
vn 0.0000 0.0000 1.0000
vn -0.7071 0.0000 -0.7071
vn 1.0000 0.0000 0.0000
vn -0.7071 0.0000 0.7071
vn -0.0000 0.0000 -1.0000
s off
f 2/1/1 3/2/1 1/3/1
f 4/4/2 5/5/2 3/2/2
f 6/6/3 7/7/3 5/8/3
f 8/9/4 9/10/4 7/7/4
f 10/11/5 11/12/5 9/13/5
f 12/14/6 13/15/6 11/12/6
f 18/16/7 25/17/7 17/18/7
f 14/19/8 15/20/8 13/15/8
f 16/21/9 1/22/9 15/23/9
f 3/24/10 7/25/10 11/26/10
f 2/27/11 17/28/11 4/29/11
f 16/30/12 18/31/12 2/27/12
f 14/32/13 19/33/13 16/30/13
f 14/32/14 21/34/14 20/35/14
f 10/36/15 21/34/15 12/37/15
f 10/36/16 23/38/16 22/39/16
f 8/40/17 24/41/17 23/38/17
f 4/29/18 24/41/18 6/42/18
f 32/43/4 39/44/4 31/45/4
f 24/46/19 32/43/19 23/47/19
f 22/48/20 30/49/20 21/50/20
f 19/51/21 29/52/21 28/53/21
f 17/18/22 27/54/22 24/55/22
f 22/56/23 32/43/23 31/45/23
f 21/50/24 29/52/24 20/57/24
f 19/58/25 26/59/25 18/60/25
f 47/61/9 55/62/9 46/63/9
f 30/49/6 37/64/6 29/52/6
f 28/65/9 34/66/9 26/59/9
f 26/67/1 33/68/1 25/17/1
f 27/69/3 40/70/3 32/43/3
f 31/71/5 38/72/5 30/49/5
f 29/52/8 36/73/8 28/53/8
f 25/17/2 35/74/2 27/54/2
f 34/75/26 41/76/26 33/77/26
f 46/63/9 72/78/9 47/61/9
f 37/79/26 43/80/26 36/81/26
f 39/82/27 71/83/27 46/84/27
f 38/85/26 46/86/26 45/87/26
f 40/70/4 63/88/4 39/44/4
f 35/89/26 47/90/26 40/91/26
f 45/92/28 62/93/28 38/94/28
f 51/95/26 50/96/26 53/97/26
f 45/98/2 53/99/2 44/100/2
f 43/101/4 50/102/4 42/103/4
f 42/104/5 49/105/5 41/106/5
f 48/107/8 56/108/8 47/109/8
f 46/110/1 54/111/1 45/98/1
f 44/112/3 52/113/3 43/101/3
f 41/106/6 51/114/6 48/107/6
f 60/115/26 67/116/26 59/117/26
f 62/118/26 69/119/26 61/120/26
f 64/121/26 71/122/26 63/123/26
f 58/124/26 65/125/26 57/126/26
f 47/127/29 64/128/29 40/129/29
f 33/68/2 57/130/2 35/74/2
f 35/131/30 65/132/30 48/133/30
f 41/134/31 58/135/31 33/136/31
f 36/137/9 59/138/9 34/66/9
f 48/107/6 66/139/6 41/106/6
f 34/140/32 67/141/32 42/142/32
f 42/103/4 68/143/4 43/101/4
f 43/144/33 60/145/33 36/146/33
f 38/72/6 61/147/6 37/64/6
f 37/148/34 69/149/34 44/150/34
f 44/100/2 70/151/2 45/98/2
f 2/1/1 4/4/1 3/2/1
f 4/4/2 6/152/2 5/5/2
f 6/6/3 8/9/3 7/7/3
f 8/9/4 10/153/4 9/10/4
f 10/11/5 12/14/5 11/12/5
f 12/14/6 14/19/6 13/15/6
f 18/16/7 26/67/7 25/17/7
f 14/19/8 16/154/8 15/20/8
f 16/21/9 2/155/9 1/22/9
f 15/156/10 1/157/10 3/24/10
f 3/24/10 5/158/10 7/25/10
f 7/25/10 9/159/10 11/26/10
f 11/26/10 13/160/10 15/156/10
f 15/156/10 3/24/10 11/26/10
f 2/27/11 18/31/11 17/28/11
f 16/30/12 19/33/12 18/31/12
f 14/32/13 20/35/13 19/33/13
f 14/32/14 12/37/14 21/34/14
f 10/36/15 22/39/15 21/34/15
f 10/36/16 8/40/16 23/38/16
f 8/40/17 6/42/17 24/41/17
f 4/29/18 17/28/18 24/41/18
f 32/43/4 40/70/4 39/44/4
f 24/46/19 27/69/19 32/43/19
f 22/48/20 31/71/20 30/49/20
f 19/51/21 20/57/21 29/52/21
f 17/18/22 25/17/22 27/54/22
f 22/56/23 23/47/23 32/43/23
f 21/50/24 30/49/24 29/52/24
f 19/58/25 28/65/25 26/59/25
f 47/61/9 56/161/9 55/62/9
f 30/49/6 38/72/6 37/64/6
f 28/65/9 36/137/9 34/66/9
f 26/67/1 34/162/1 33/68/1
f 27/69/3 35/163/3 40/70/3
f 31/71/5 39/164/5 38/72/5
f 29/52/8 37/64/8 36/73/8
f 25/17/2 33/68/2 35/74/2
f 34/75/26 42/165/26 41/76/26
f 46/63/9 71/166/9 72/78/9
f 37/79/26 44/167/26 43/80/26
f 39/82/27 63/168/27 71/83/27
f 38/85/26 39/169/26 46/86/26
f 40/70/4 64/170/4 63/88/4
f 35/89/26 48/171/26 47/90/26
f 45/92/28 70/172/28 62/93/28
f 51/95/26 49/173/26 50/96/26
f 50/96/26 52/174/26 53/97/26
f 53/97/26 54/175/26 51/95/26
f 54/175/26 55/176/26 51/95/26
f 55/176/26 56/177/26 51/95/26
f 45/98/2 54/111/2 53/99/2
f 43/101/4 52/113/4 50/102/4
f 42/104/5 50/178/5 49/105/5
f 48/107/8 51/114/8 56/108/8
f 46/110/1 55/179/1 54/111/1
f 44/112/3 53/180/3 52/113/3
f 41/106/6 49/105/6 51/114/6
f 60/115/26 68/181/26 67/116/26
f 62/118/26 70/182/26 69/119/26
f 64/121/26 72/183/26 71/122/26
f 58/124/26 66/184/26 65/125/26
f 47/127/29 72/185/29 64/128/29
f 33/68/2 58/186/2 57/130/2
f 35/131/30 57/187/30 65/132/30
f 41/134/31 66/188/31 58/135/31
f 36/137/9 60/189/9 59/138/9
f 48/107/6 65/190/6 66/139/6
f 34/140/32 59/191/32 67/141/32
f 42/103/4 67/192/4 68/143/4
f 43/144/33 68/193/33 60/145/33
f 38/72/6 62/194/6 61/147/6
f 37/148/34 61/120/34 69/149/34
f 44/100/2 69/195/2 70/151/2
